<?xml version="1.0" encoding="UTF-8" standalone="no"?>
<!-- Generator: Adobe Illustrator 17.1.0, SVG Export Plug-In . SVG Version: 6.00 Build 0)  -->

<svg
   version="1.1"
   id="Capa_1"
   x="0px"
   y="0px"
   viewBox="0 0 256 256"
   xml:space="preserve"
   sodipodi:docname="le_mur_icon.svg"
   width="256"
   height="256"
   inkscape:version="1.1.1 (3bf5ae0d25, 2021-09-20)"
   xmlns:inkscape="http://www.inkscape.org/namespaces/inkscape"
   xmlns:sodipodi="http://sodipodi.sourceforge.net/DTD/sodipodi-0.dtd"
   xmlns="http://www.w3.org/2000/svg"
   xmlns:svg="http://www.w3.org/2000/svg"><defs
   id="defs65"><clipPath
     clipPathUnits="userSpaceOnUse"
     id="clipPath896"><path
       d="M 0,58 H 156 V 0 H 0 Z"
       id="path894" /></clipPath><clipPath
     clipPathUnits="userSpaceOnUse"
     id="clipPath904"><path
       d="M 0,0 H 156 V 58 H 0 Z"
       id="path902" /></clipPath><clipPath
     clipPathUnits="userSpaceOnUse"
     id="clipPath1222"><path
       d="M 0,58 H 156 V 0 H 0 Z"
       id="path1220" /></clipPath><clipPath
     clipPathUnits="userSpaceOnUse"
     id="clipPath1230"><path
       d="M 0,0 H 156 V 58 H 0 Z"
       id="path1228" /></clipPath></defs><sodipodi:namedview
   id="namedview63"
   pagecolor="#ffffff"
   bordercolor="#666666"
   borderopacity="1.0"
   inkscape:pageshadow="2"
   inkscape:pageopacity="0.0"
   inkscape:pagecheckerboard="0"
   showgrid="false"
   width="256px"
   inkscape:zoom="3.1572441"
   inkscape:cx="145.22159"
   inkscape:cy="121.14996"
   inkscape:window-width="2560"
   inkscape:window-height="1377"
   inkscape:window-x="712"
   inkscape:window-y="238"
   inkscape:window-maximized="1"
   inkscape:current-layer="Capa_1" />
<g
   id="g30"
   transform="matrix(0.63573107,0,0,0.63573107,0,59.275856)">
	<path
   d="m 15,193.754 h 96.605 c 8.271,0 15,-6.729 15,-15 V 148.67 c 0,-8.271 -6.729,-15 -15,-15 H 15 c -8.271,0 -15,6.729 -15,15 v 30.084 c 0,8.271 6.729,15 15,15 z"
   id="path2" />
	<path
   d="M 264.287,178.754 V 148.67 c 0,-8.271 -6.729,-15 -15,-15 h -96.605 c -8.271,0 -15,6.729 -15,15 v 30.084 c 0,8.271 6.729,15 15,15 h 96.605 c 8.271,0 15,-6.729 15,-15 z"
   id="path4" />
	<path
   d="M 401.968,178.754 V 148.67 c 0,-8.271 -6.729,-15 -15,-15 h -96.605 c -8.271,0 -15,6.729 -15,15 v 30.084 c 0,8.271 6.729,15 15,15 h 96.605 c 8.271,0 15,-6.729 15,-15 z"
   id="path6" />
	<path
   d="m 82.976,118.492 h 96.606 c 8.271,0 15,-6.729 15,-15 V 73.407 c 0,-8.271 -6.729,-15 -15,-15 H 82.976 c -8.271,0 -15,6.729 -15,15 v 30.085 c 0,8.271 6.729,15 15,15 z"
   id="path8" />
	<path
   d="m 222.104,118.492 h 96.605 c 8.271,0 15,-6.729 15,-15 V 73.407 c 0,-8.271 -6.729,-15 -15,-15 h -96.605 c -8.271,0 -15,6.729 -15,15 v 30.085 c 0,8.271 6.729,15 15,15 z"
   id="path10" />
	<path
   d="m 15,118.492 h 26.302 c 8.271,0 15,-6.729 15,-15 V 73.407 c 0,-8.271 -6.729,-15 -15,-15 H 15 c -8.271,0 -15,6.729 -15,15 v 30.085 c 0,8.271 6.729,15 15,15 z"
   id="path12" />
	<path
   d="m 387.686,58.407 h -26.301 c -8.271,0 -15,6.729 -15,15.001 v 30.084 c 0,8.271 6.729,15 15,15 h 26.301 c 8.271,0 15,-6.729 15,-15 V 73.408 c 0,-8.272 -6.729,-15.001 -15,-15.001 z"
   id="path14" />
	
	
	
	<path
   d="m 82.976,208.932 c -8.271,0 -15,6.729 -15,15 v 30.085 c 0,8.271 6.729,15 15,15 h 96.606 c 8.271,0 15,-6.729 15,-15 v -30.085 c 0,-8.271 -6.729,-15 -15,-15 z"
   id="path22" />
	<path
   d="m 222.104,269.016 h 96.605 c 8.271,0 15,-6.729 15,-15 v -30.085 c 0,-8.271 -6.729,-15 -15,-15 h -96.605 c -8.271,0 -15,6.729 -15,15 v 30.085 c 0,8.271 6.729,15 15,15 z"
   id="path24" />
	<path
   d="m 15,269.016 h 26.302 c 8.271,0 15,-6.729 15,-15 v -30.085 c 0,-8.271 -6.729,-15 -15,-15 H 15 c -8.271,0 -15,6.729 -15,15 v 30.085 c 0,8.271 6.729,15 15,15 z"
   id="path26" />
	<path
   d="m 387.686,208.932 h -26.301 c -8.271,0 -15,6.729 -15,15 v 30.085 c 0,8.271 6.729,15 15,15 h 26.301 c 8.271,0 15,-6.729 15,-15 v -30.085 c 0,-8.271 -6.729,-15 -15,-15 z"
   id="path28" />
</g>
<g
   id="g32">
</g>
<g
   id="g34">
</g>
<g
   id="g36">
</g>
<g
   id="g38">
</g>
<g
   id="g40">
</g>
<g
   id="g42">
</g>
<g
   id="g44">
</g>
<g
   id="g46">
</g>
<g
   id="g48">
</g>
<g
   id="g50">
</g>
<g
   id="g52">
</g>
<g
   id="g54">
</g>
<g
   id="g56">
</g>
<g
   id="g58">
</g>
<g
   id="g60">
</g>
<g
   id="g900"
   clip-path="url(#clipPath904)"
   transform="matrix(0.73729526,0,0,-0.73729526,280.19592,336.98129)" /><g
   id="g1226"
   clip-path="url(#clipPath1230)"
   transform="matrix(1.3333333,0,0,-1.3333333,23.293735,82.883885)"><path
     d="m 124.205,29.002 c -0.698,0.118 -6.333,0.672 -9.942,0.481 -2.008,-0.107 -10.529,-1.058 -14.213,-1.786 -3.23,-0.638 -7.746,-1.642 -12.686,-1.711 -6.109,-0.084 -8.992,1.233 -10.603,1.895 -1.61,0.665 -2.912,1.864 -3.446,2.471 -0.478,0.549 -0.509,1.465 -0.509,1.465 0,0 5.299,5.661 7.843,10.621 2.176,4.238 2.821,7.35 3.011,8.836 0.194,1.485 -0.186,2.713 -0.955,3.3 -0.775,0.586 -1.972,0.738 -3.089,0.117 -1.545,-0.854 -2.957,-2.564 -4.087,-4.157 -1.126,-1.595 -2.692,-3.903 -3.833,-7.811 -1.242,-4.271 -1.445,-6.089 -1.478,-7.07 -0.035,-0.979 0.086,-2.684 0.086,-2.684 0,0 -1.261,-1.701 -2.662,-3.052 -1.401,-1.35 -2.967,-2.573 -4.875,-2.253 -1.471,0.248 -1.61,1.946 -1.627,2.836 -0.016,0.886 0.397,2.038 0.525,3.014 0.13,0.973 0.211,0.693 -0.194,1.078 -0.408,0.389 -0.972,0.223 -1.768,0.203 -0.794,-0.019 -0.623,-0.491 -1.071,-1.269 -0.445,-0.777 -1.524,-3.036 -2.823,-4.205 -1.301,-1.168 -1.839,-1.141 -2.863,-1.01 -1.022,0.129 -1.615,0.615 -2.049,1.518 -0.435,0.902 -0.276,4.162 -0.335,5.052 -0.065,0.889 -0.491,1.529 -1.243,1.91 -0.908,0.463 -1.902,0.221 -2.757,-0.484 -0.886,-0.725 -2.4,-2.837 -3.041,-3.887 -0.643,-1.052 -1.981,-2.55 -2.333,-2.538 -0.417,0.015 -0.378,0.72 -0.235,1.927 0.095,0.799 0.187,1.859 0.216,2.795 0.034,0.93 -0.467,1.321 -1.393,1.54 -0.923,0.218 -1.707,-0.276 -2.276,-1.087 -0.657,-0.933 -1.927,-2.496 -3.245,-4.176 -1.32,-1.679 -3.422,-3.662 -4.213,-3.59 -0.793,0.076 -1.146,0.645 -1.439,1.59 -0.293,0.945 0.16,4.568 0.3,5.916 0.141,1.35 1.045,7.244 1.714,10.348 0.669,3.103 0.918,3.562 1.511,5.828 0.591,2.266 0.766,1.877 0.568,2.957 -0.194,1.08 -0.754,1.062 -1.357,1.223 -0.6,0.161 -0.869,0.172 -1.438,-0.088 -0.57,-0.262 -1.005,-0.487 -1.38,-1.92 C 28.144,51.71 27.354,49.25 25.085,44.428 22.816,39.606 20.2,35.407 17.429,31.127 c -2.389,-3.689 -3.58,-4.031 -4.401,-3.848 -0.683,0.155 -0.75,1.108 -0.767,1.948 -0.02,0.842 0.227,2.032 0.652,3.511 0.426,1.477 1.545,4.389 2.562,6.826 1.02,2.438 3.108,6.716 4.808,10.484 1.861,4.125 2.195,5.945 2.381,6.529 0.241,0.756 -0.498,1.063 -1.097,1.317 -0.597,0.255 -1.56,-0.03 -1.56,-0.03 -0.636,-0.207 -1.114,-0.356 -1.65,-0.945 -0.535,-0.588 -2.088,-1.657 -2.81,-1.874 -0.526,-0.16 -0.558,-0.439 -0.263,-0.949 0,0 0.143,-0.572 0.8,-0.5 0.655,0.071 0.508,0.158 1.211,0.274 0.702,0.115 0.773,-0.69 0.308,-1.981 C 17.136,50.6 15.286,45.993 14.056,42.721 12.819,39.452 9.624,31.999 9.307,28.477 9.048,25.65 8.829,23.816 10.587,22.256 c 2.334,-2.072 7.445,2.142 9.242,5.615 1.193,2.299 5.609,10.594 6.416,12.338 0.807,1.746 2.315,4.915 2.051,4.128 -0.258,-0.784 -1.729,-7.032 -2.391,-12.61 -0.663,-5.575 1.261,-6.096 2.592,-6.704 1.332,-0.605 3.068,0.487 3.975,1.157 0.914,0.666 4.295,5.067 4.593,5.664 0.301,0.595 1.032,0.594 1.018,0.267 -0.009,-0.327 0.004,-2.907 0.479,-4.044 0.474,-1.137 0.918,-1.712 2.255,-2.227 1.332,-0.512 2.102,0.359 3.649,2.516 1.592,2.215 2.398,4.285 2.763,4.728 0.502,0.608 0.481,-0.335 0.564,-1.233 0.093,-0.991 0.141,-2.665 1.351,-4.109 1.209,-1.441 2.039,-2.168 4.474,-1.879 2.438,0.289 4.778,3.563 4.778,3.563 0,0 0.205,-2.2 1.783,-3.701 1.582,-1.504 2.361,-1.455 4.752,-1.163 2.391,0.286 6.321,5.442 6.321,5.442 0,0 1.79,-2.387 3.947,-3.592 2.695,-1.507 7.908,-2.525 12.386,-2.588 4.479,-0.062 11.745,1.25 17.473,2.668 5.047,1.25 11.05,1.917 13.291,1.977 2.244,0.063 5.183,-0.483 5.423,-0.26 0.242,0.225 1.129,0.674 0.433,0.793 M 75.728,46.348 c 2.279,3.887 4.322,5.756 4.978,5.492 0.654,-0.263 0.65,-0.443 0.176,-1.875 -0.471,-1.427 -1.433,-4.767 -3.967,-8.355 -2.539,-3.588 -4.488,-6.05 -4.488,-6.05 0,0 0.387,5.823 3.301,10.788"
     style="fill:#1c95cd;fill-opacity:1;fill-rule:evenodd;stroke:none"
     id="path1232" /><path
     d="m 59.749,41.19 c 0.004,0.055 -0.088,0.191 0.188,0.163 0.273,-0.028 0.515,-0.122 0.544,-0.133 0.028,-0.011 0.197,-0.016 0.197,-0.016 0,0 0.159,0.705 0.228,0.778 0.068,0.072 0.209,0.098 0.281,0.236 0.071,0.14 0.191,0.343 0.442,0.449 0.249,0.105 0.241,0.116 0.497,0.105 0.254,-0.008 0.576,0.008 0.764,-0.064 0.189,-0.073 0.242,-0.094 0.37,-0.24 0.128,-0.147 0.286,-0.237 0.278,-0.417 -0.005,-0.179 0,-0.227 -0.021,-0.369 -0.024,-0.14 -0.105,-0.213 -0.022,-0.341 0.08,-0.124 0.115,-0.202 0.094,-0.352 -0.028,-0.151 0.042,-0.361 -0.102,-0.422 -0.144,-0.063 -0.597,-0.311 -0.789,-0.352 -0.189,-0.041 -0.849,-0.245 -1.023,-0.248 -0.168,-0.002 -0.719,-0.012 -0.899,0.003 -0.177,0.016 -0.59,0.07 -0.661,0.213 -0.073,0.146 -0.137,0.204 -0.19,0.376 -0.049,0.171 -0.176,0.631 -0.176,0.631"
     style="fill:#1c95cd;fill-opacity:1;fill-rule:evenodd;stroke:none"
     id="path1234" /><path
     d="M 0,14.318 H 1.513 V 9.971 c 0,-1.285 0.409,-2.125 1.562,-2.125 1.157,0 1.566,0.84 1.566,2.125 v 4.347 H 6.153 V 9.508 C 6.153,7.49 5.011,6.658 3.075,6.658 1.144,6.658 0,7.49 0,9.508 Z"
     style="fill:#231f20;fill-opacity:1;fill-rule:nonzero;stroke:none"
     id="path1236" /><path
     d="m 8.363,14.318 h 1.857 l 2.872,-5.632 h 0.022 v 5.632 h 1.448 V 6.787 h -1.85 L 9.831,12.42 H 9.812 V 6.787 H 8.363 Z"
     style="fill:#231f20;fill-opacity:1;fill-rule:nonzero;stroke:none"
     id="path1238" /><path
     d="m 16.695,14.318 h 1.511 V 6.787 h -1.511 z"
     style="fill:#231f20;fill-opacity:1;fill-rule:nonzero;stroke:none"
     id="path1240" /><path
     d="m 20.417,14.318 h 1.512 V 7.975 h 2.925 V 6.787 h -4.437 z"
     style="fill:#231f20;fill-opacity:1;fill-rule:nonzero;stroke:none"
     id="path1242" /><path
     d="m 30.704,4.088 h -0.748 v 10.795 h 0.748 z"
     style="fill:#231f20;fill-opacity:1;fill-rule:nonzero;stroke:none"
     id="path1244" /><path
     d="m 42.045,9.42 c 0,-2.221 -1.628,-2.762 -2.732,-2.762 -1.099,0 -2.727,0.541 -2.727,2.762 v 4.898 h 0.741 V 9.42 c 0,-1.229 0.684,-2.115 1.986,-2.115 1.308,0 1.987,0.886 1.987,2.115 v 4.898 h 0.745 z"
     style="fill:#231f20;fill-opacity:1;fill-rule:nonzero;stroke:none"
     id="path1246" /><path
     d="m 44.354,10.996 c 0,0.422 0,0.854 -0.044,1.293 h 0.66 v -0.978 h 0.021 c 0.227,0.495 0.64,1.109 1.783,1.109 1.356,0 1.875,-0.906 1.875,-2.111 V 6.787 h -0.68 v 3.344 c 0,1.041 -0.365,1.707 -1.306,1.707 -1.24,0 -1.627,-1.09 -1.627,-2.007 V 6.787 h -0.682 z"
     style="fill:#231f20;fill-opacity:1;fill-rule:nonzero;stroke:none"
     id="path1248" /><path
     d="m 51.63,13.762 h -0.682 v 0.904 H 51.63 Z M 50.948,12.289 H 51.63 V 6.787 h -0.682 z"
     style="fill:#231f20;fill-opacity:1;fill-rule:nonzero;stroke:none"
     id="path1250" /><path
     d="m 55.851,6.787 h -0.799 l -1.867,5.502 h 0.744 L 55.45,7.533 h 0.02 l 1.599,4.756 h 0.709 z"
     style="fill:#231f20;fill-opacity:1;fill-rule:nonzero;stroke:none"
     id="path1252" /><path
     d="M 63.015,6.959 C 62.539,6.766 61.924,6.658 61.416,6.658 c -1.821,0 -2.504,1.23 -2.504,2.879 0,1.686 0.93,2.883 2.319,2.883 1.557,0 2.192,-1.248 2.192,-2.729 V 9.346 h -3.768 c 0,-1.165 0.629,-2.106 1.817,-2.106 0.494,0 1.218,0.207 1.543,0.412 V 6.959 m -0.334,2.969 c 0,0.961 -0.391,1.91 -1.404,1.91 -1.006,0 -1.622,-1.004 -1.622,-1.91 z"
     style="fill:#231f20;fill-opacity:1;fill-rule:nonzero;stroke:none"
     id="path1254" /><path
     d="m 65.312,11.063 c 0,0.601 0,0.83 -0.043,1.226 h 0.682 v -1.057 h 0.019 c 0.248,0.618 0.715,1.188 1.412,1.188 0.164,0 0.357,-0.031 0.476,-0.064 v -0.713 c -0.138,0.046 -0.322,0.066 -0.496,0.066 -1.079,0 -1.371,-1.209 -1.371,-2.201 V 6.787 h -0.679 z"
     style="fill:#231f20;fill-opacity:1;fill-rule:nonzero;stroke:none"
     id="path1256" /><path
     d="m 69.079,7.586 c 0.407,-0.203 0.908,-0.346 1.434,-0.346 0.646,0 1.22,0.358 1.22,0.983 0,1.306 -2.644,1.103 -2.644,2.697 0,1.09 0.888,1.5 1.791,1.5 0.293,0 0.875,-0.064 1.359,-0.246 L 72.174,11.58 c -0.352,0.16 -0.841,0.258 -1.218,0.258 -0.701,0 -1.187,-0.217 -1.187,-0.918 0,-1.024 2.71,-0.893 2.71,-2.697 0,-1.164 -1.093,-1.565 -1.923,-1.565 -0.528,0 -1.057,0.063 -1.541,0.261 z"
     style="fill:#231f20;fill-opacity:1;fill-rule:nonzero;stroke:none"
     id="path1258" /><path
     d="m 74.974,13.762 h -0.682 v 0.904 h 0.682 z m -0.682,-1.473 h 0.682 V 6.787 h -0.682 z"
     style="fill:#231f20;fill-opacity:1;fill-rule:nonzero;stroke:none"
     id="path1260" /><path
     d="M 79.655,11.709 H 78.403 V 8.148 c 0,-0.496 0.182,-0.908 0.735,-0.908 0.258,0 0.429,0.057 0.627,0.131 l 0.043,-0.56 C 79.645,6.742 79.309,6.658 78.975,6.658 c -1.209,0 -1.253,0.832 -1.253,1.836 v 3.215 h -1.078 v 0.58 h 1.078 v 1.33 l 0.681,0.236 v -1.566 h 1.252 z"
     style="fill:#231f20;fill-opacity:1;fill-rule:nonzero;stroke:none"
     id="path1262" /><path
     d="M 85.157,6.959 C 84.685,6.766 84.066,6.658 83.562,6.658 c -1.825,0 -2.506,1.23 -2.506,2.879 0,1.686 0.929,2.883 2.322,2.883 1.553,0 2.188,-1.248 2.188,-2.729 V 9.346 h -3.764 c 0,-1.165 0.628,-2.106 1.814,-2.106 0.495,0 1.216,0.207 1.541,0.412 V 6.959 m -0.334,2.969 c 0,0.961 -0.39,1.91 -1.404,1.91 -1.002,0 -1.617,-1.004 -1.617,-1.91 h 3.021 m -1.133,4.49 h 0.852 l -1.357,-1.555 h -0.498 z"
     style="fill:#231f20;fill-opacity:1;fill-rule:nonzero;stroke:none"
     id="path1264" /><path
     d="m 95.41,6.787 h -0.681 v 0.877 h -0.02 C 94.342,6.959 93.78,6.658 92.991,6.658 c -1.51,0 -2.263,1.25 -2.263,2.879 0,1.674 0.648,2.883 2.263,2.883 1.082,0 1.622,-0.785 1.718,-1.059 h 0.02 v 3.522 H 95.41 V 6.787 M 93.102,7.24 c 1.208,0 1.627,1.295 1.627,2.297 0,1.006 -0.419,2.301 -1.627,2.301 -1.298,0 -1.63,-1.232 -1.63,-2.301 0,-1.066 0.332,-2.297 1.63,-2.297"
     style="fill:#231f20;fill-opacity:1;fill-rule:nonzero;stroke:none"
     id="path1266" /><path
     d="m 101.337,6.959 c -0.476,-0.193 -1.091,-0.301 -1.601,-0.301 -1.821,0 -2.503,1.23 -2.503,2.879 0,1.686 0.931,2.883 2.321,2.883 1.554,0 2.189,-1.248 2.189,-2.729 V 9.346 h -3.765 c 0,-1.165 0.628,-2.106 1.816,-2.106 0.492,0 1.219,0.207 1.543,0.412 V 6.959 m -0.338,2.969 c 0,0.961 -0.385,1.91 -1.4,1.91 -1.004,0 -1.621,-1.004 -1.621,-1.91 z"
     style="fill:#231f20;fill-opacity:1;fill-rule:nonzero;stroke:none"
     id="path1268" /><path
     d="m 107.237,14.318 h 0.748 V 7.436 h 3.022 V 6.787 h -3.77 z"
     style="fill:#231f20;fill-opacity:1;fill-rule:nonzero;stroke:none"
     id="path1270" /><path
     d="m 115.775,7.672 h -0.025 c -0.3,-0.656 -1.065,-1.014 -1.745,-1.014 -1.565,0 -1.813,1.059 -1.813,1.554 0,1.847 1.963,1.933 3.387,1.933 h 0.131 v 0.281 c 0,0.935 -0.336,1.412 -1.248,1.412 -0.575,0 -1.113,-0.129 -1.623,-0.451 v 0.656 c 0.418,0.205 1.133,0.377 1.623,0.377 1.355,0 1.928,-0.614 1.928,-2.049 V 7.943 c 0,-0.443 0,-0.777 0.052,-1.156 h -0.667 v 0.885 m -0.065,1.889 h -0.193 c -1.178,0 -2.581,-0.12 -2.581,-1.327 0,-0.724 0.519,-0.994 1.146,-0.994 1.595,0 1.628,1.393 1.628,1.987 z"
     style="fill:#231f20;fill-opacity:1;fill-rule:nonzero;stroke:none"
     id="path1272" /><path
     d="m 122.896,8.084 c 0,-0.42 0,-0.855 0.046,-1.297 H 122.28 V 7.77 h -0.018 c -0.232,-0.497 -0.638,-1.112 -1.779,-1.112 -1.361,0 -1.88,0.906 -1.88,2.113 v 3.518 h 0.679 V 8.947 c 0,-1.039 0.368,-1.707 1.307,-1.707 1.238,0 1.628,1.092 1.628,2.008 v 3.041 h 0.679 z"
     style="fill:#231f20;fill-opacity:1;fill-rule:nonzero;stroke:none"
     id="path1274" /><path
     d="m 124.774,7.586 c 0.411,-0.203 0.907,-0.346 1.436,-0.346 0.648,0 1.22,0.358 1.22,0.983 0,1.306 -2.644,1.103 -2.644,2.697 0,1.09 0.885,1.5 1.79,1.5 0.29,0 0.876,-0.064 1.361,-0.246 l -0.066,-0.594 c -0.354,0.16 -0.843,0.258 -1.218,0.258 -0.7,0 -1.187,-0.217 -1.187,-0.918 0,-1.024 2.709,-0.893 2.709,-2.697 0,-1.164 -1.089,-1.565 -1.921,-1.565 -0.527,0 -1.057,0.063 -1.542,0.261 z"
     style="fill:#231f20;fill-opacity:1;fill-rule:nonzero;stroke:none"
     id="path1276" /><path
     d="m 133.149,7.672 h -0.021 c -0.302,-0.656 -1.066,-1.014 -1.746,-1.014 -1.568,0 -1.814,1.059 -1.814,1.554 0,1.847 1.962,1.933 3.386,1.933 h 0.131 v 0.281 c 0,0.935 -0.336,1.412 -1.256,1.412 -0.567,0 -1.11,-0.129 -1.615,-0.451 v 0.656 c 0.42,0.205 1.133,0.377 1.615,0.377 1.363,0 1.936,-0.614 1.936,-2.049 V 7.943 c 0,-0.443 0,-0.777 0.053,-1.156 h -0.669 v 0.885 m -0.064,1.889 h -0.194 c -1.177,0 -2.583,-0.12 -2.583,-1.327 0,-0.724 0.521,-0.994 1.149,-0.994 1.595,0 1.628,1.393 1.628,1.987 z"
     style="fill:#231f20;fill-opacity:1;fill-rule:nonzero;stroke:none"
     id="path1278" /><path
     d="m 135.978,10.996 c 0,0.422 0,0.854 -0.045,1.293 h 0.66 v -0.978 h 0.02 c 0.228,0.495 0.64,1.109 1.781,1.109 1.361,0 1.878,-0.906 1.878,-2.111 V 6.787 h -0.677 v 3.344 c 0,1.041 -0.369,1.707 -1.309,1.707 -1.238,0 -1.631,-1.09 -1.631,-2.007 V 6.787 h -0.677 z"
     style="fill:#231f20;fill-opacity:1;fill-rule:nonzero;stroke:none"
     id="path1280" /><path
     d="m 142.569,10.996 c 0,0.422 0,0.854 -0.043,1.293 h 0.662 v -0.978 h 0.02 c 0.226,0.495 0.635,1.109 1.779,1.109 1.362,0 1.878,-0.906 1.878,-2.111 V 6.787 h -0.68 v 3.344 c 0,1.041 -0.367,1.707 -1.303,1.707 -1.244,0 -1.631,-1.09 -1.631,-2.007 V 6.787 h -0.682 z"
     style="fill:#231f20;fill-opacity:1;fill-rule:nonzero;stroke:none"
     id="path1282" /><path
     d="m 152.854,6.959 c -0.472,-0.193 -1.091,-0.301 -1.593,-0.301 -1.828,0 -2.504,1.23 -2.504,2.879 0,1.686 0.926,2.883 2.316,2.883 1.554,0 2.194,-1.248 2.194,-2.729 V 9.346 h -3.768 c 0,-1.165 0.627,-2.106 1.814,-2.106 0.497,0 1.22,0.207 1.541,0.412 V 6.959 m -0.332,2.969 c 0,0.961 -0.39,1.91 -1.405,1.91 -1.003,0 -1.618,-1.004 -1.618,-1.91 z"
     style="fill:#231f20;fill-opacity:1;fill-rule:nonzero;stroke:none"
     id="path1284" /></g></svg>
